<svg width="84" height="76" viewBox="0 0 84 76" fill="none" xmlns="http://www.w3.org/2000/svg">
<path d="M14.821 29.5684C15.1393 29.5684 15.4368 29.4955 15.7499 29.4754L11.3238 26.77C9.33413 25.5547 8.12151 23.3968 8.11861 21.0723L8.10991 15.9259C8.10461 12.2281 11.1024 9.22509 14.809 9.21981C14.8124 9.21981 14.8177 9.21981 14.8208 9.21981C18.5211 9.21981 21.5257 12.2095 21.5312 15.903L21.5342 17.3071L28.0678 21.2996C29.0448 19.3261 29.6441 17.1357 29.6441 14.7861C29.6441 6.6146 23.0084 -6.49591e-08 14.8208 -6.49591e-08C6.63373 -6.49591e-08 0 6.6146 0 14.7861C0 22.951 6.63373 29.5684 14.821 29.5684Z" fill="black"/>
<path d="M81.3039 41.1561C79.0965 40.2583 76.579 41.3264 75.6796 43.5287L65.978 67.3865H57.708H44.3782C43.7113 67.3865 43.0886 67.5489 42.5241 67.8182C41.0742 68.5116 40.0613 69.9788 40.0613 71.6932C40.0613 74.0723 41.9941 76.0001 44.3782 76.0001H68.8855C70.6431 76.0001 72.2248 74.9375 72.8874 73.3116L83.6829 46.766C84.5778 44.5625 83.514 42.0501 81.3039 41.1561Z" fill="black"/>
<path d="M18.1776 15.9089C18.1746 14.0612 16.6724 12.5669 14.8209 12.5669C14.8177 12.5669 14.8177 12.5669 14.8144 12.5669C12.9634 12.5701 11.4611 14.0715 11.4644 15.9203L11.472 21.0662C11.4753 22.2288 12.0836 23.3072 13.0745 23.9146L27.4196 32.6827C27.9679 33.0171 28.5714 33.1775 29.1714 33.1775C30.3006 33.1775 31.4019 32.6082 32.0354 31.5772C33.0046 30.0018 32.5082 27.9398 30.9287 26.9747L18.18 19.1832L18.1776 15.9089Z" fill="black"/>
<path d="M60.3888 58.1258C60.3888 55.152 57.9717 52.7424 54.991 52.7424H35.526L22.1998 39.9221L27.973 43.5442C27.738 37.7633 22.9997 33.1399 17.1486 33.1399H12.5101C6.50742 33.1399 1.64294 37.9932 1.64294 43.9803V72.8723C1.64294 74.5995 3.04486 75.9996 4.77606 75.9996H24.8824C26.6138 75.9996 28.0155 74.5993 28.0155 72.8723V66.5123C27.4802 66.106 26.9866 65.6496 26.6056 65.1011L14.7064 47.6721L29.6006 62.001C30.607 62.969 31.9523 63.5094 33.3476 63.5094H54.991C57.9717 63.5096 60.3888 61.0999 60.3888 58.1258Z" fill="black"/>
</svg>
