<svg width="79" height="77" viewBox="0 0 79 77" fill="none" xmlns="http://www.w3.org/2000/svg">
<path d="M64.5557 44.4122C59.6276 44.4122 53.4602 45.2748 51.4427 45.5783C43.0918 36.8273 40.716 31.8531 40.1816 30.5269C40.9058 28.6595 43.4257 21.5659 43.7837 12.4553C43.9603 7.89384 43.0001 4.48549 40.929 2.32483C38.8615 0.167758 36.359 -4.87764e-08 35.6413 -4.87764e-08C33.1251 -4.87764e-08 28.9039 1.27685 28.9039 9.82741C28.9039 17.2464 32.3509 25.1187 33.3037 27.1528C28.2836 41.8209 22.894 51.8621 21.7495 53.9271C1.57746 61.5486 0 68.9177 0 71.0062C0 74.7593 2.66358 77 7.12506 77C17.9647 77 27.8565 58.7379 29.4921 55.5668C37.1908 52.4886 47.495 50.5819 50.1144 50.127C57.6281 57.3094 66.3179 59.2258 69.9264 59.2258C72.6415 59.2258 79 59.2258 79 52.6656C79.0003 46.5736 71.2192 44.4122 64.5557 44.4122ZM64.0333 48.7189C69.8882 48.7189 71.4356 50.662 71.4356 51.6892C71.4356 52.3339 71.1917 54.4373 68.0534 54.4373C65.2392 54.4373 60.3804 52.8052 55.5999 49.2639C57.5935 49.001 60.5435 48.7189 64.0333 48.7189ZM35.334 4.17452C35.8679 4.17452 36.2193 4.34663 36.5091 4.74991C38.1931 7.09469 36.8353 14.7563 35.1826 20.7519C33.5873 15.611 32.3901 7.72276 34.0746 4.94759C34.4039 4.40595 34.7802 4.17452 35.334 4.17452ZM32.4905 50.0659C34.6103 45.7686 36.9861 39.5058 38.2802 35.9637C40.8699 40.3134 44.353 44.3518 46.3675 46.5414C40.0952 47.8684 35.3496 49.1941 32.4905 50.0659ZM4.21071 71.5796C4.07106 71.4133 4.05042 71.063 4.15567 70.6423C4.37636 69.7608 6.06289 65.3912 18.2613 59.9155C16.5146 62.6764 13.784 66.6212 10.7843 69.5683C8.6727 71.5517 7.02847 72.5575 5.89724 72.5575C5.49256 72.5575 4.93497 72.4467 4.21071 71.5796Z" fill="black"/>
</svg>
