<svg width="80" height="76" viewBox="0 0 80 76" fill="none" xmlns="http://www.w3.org/2000/svg">
<path d="M79.8474 55.2191C79.3182 53.5832 77.5689 52.6889 75.9398 53.2194L71.9072 54.5354C74.3775 49.4042 75.6714 43.7618 75.6714 38C75.6714 17.0467 58.6987 -5.70328e-09 37.8357 -5.70328e-09C16.973 -5.70328e-09 0 17.0467 0 38C0 58.9533 16.973 76 37.8357 76C39.5483 76 40.937 74.6053 40.937 72.8852C40.937 71.1654 39.5483 69.7705 37.8357 69.7705C20.3931 69.7705 6.20257 55.5186 6.20257 38C6.20257 20.4816 20.3931 6.22951 37.8357 6.22951C55.2786 6.22951 69.4688 20.4816 69.4688 38C69.4688 42.8271 68.3843 47.5528 66.3122 51.8465L64.9345 47.5865C64.4053 45.9508 62.6554 45.0558 61.0268 45.5868C59.3978 46.1185 58.5061 47.8758 59.0353 49.5116L62.6924 60.8164C63.1179 62.1329 64.3336 62.9699 65.6411 62.9699C65.9584 62.9699 66.2817 62.9205 66.6 62.8169L77.8562 59.1444C79.485 58.6127 80.3766 56.8557 79.8474 55.2191Z" fill="black"/>
</svg>
