<svg width="43" height="76" viewBox="0 0 43 76" fill="none" xmlns="http://www.w3.org/2000/svg">
<path d="M37.4742 0H5.5258C2.46821 0 5.91106e-07 2.48145 5.91106e-07 5.53619V70.4694C5.91106e-07 73.5213 2.46821 76 5.5258 76H37.4742C40.5263 76 43 73.5213 43 70.4694V5.53619C43 2.48145 40.5263 0 37.4742 0ZM13.6167 3.36215H29.3889C29.7873 3.36215 30.1111 3.95758 30.1111 4.69426C30.1111 5.43095 29.7873 6.02915 29.3889 6.02915H13.6167C13.2154 6.02915 12.8972 5.43095 12.8972 4.69426C12.8972 3.95758 13.2154 3.36215 13.6167 3.36215ZM21.5028 70.5358C19.5575 70.5358 17.9748 68.9517 17.9748 67.002C17.9748 65.0523 19.5575 63.4737 21.5028 63.4737C23.4425 63.4737 25.0252 65.0523 25.0252 67.002C25.0252 68.9517 23.4425 70.5358 21.5028 70.5358ZM38.8605 58.436H4.14228V9.34145H38.8605V58.436Z" fill="black"/>
</svg>
