<svg width="100" height="77" viewBox="0 0 100 77" fill="none" xmlns="http://www.w3.org/2000/svg">
<path d="M95.0917 7.69532e-09H17.3098C14.6035 7.69532e-09 12.402 2.20136 12.402 4.90755C12.402 4.90755 12.402 14.265 12.402 17.7075C12.402 19.3997 12.2764 19.639 13.4118 19.639C14.0149 19.639 14.6827 19.639 15.3589 19.639C16.3118 19.639 16.1163 19.3997 16.1163 17.6759C16.1163 14.2413 16.1163 4.90755 16.1163 4.90755C16.1163 4.26076 16.6631 3.71407 17.3098 3.71407H95.0917C95.7381 3.71407 96.2849 4.26076 96.2849 4.90755V52.8178H40.8312C40.8312 52.8178 38.8768 52.8142 38.8768 55.3409C38.8768 56.839 38.8768 59.8351 38.8768 61.3337C38.8768 63.8569 40.8945 63.8568 40.8945 63.8568H95.0917C97.7977 63.8568 100 61.6557 100 58.9501V4.90755C100 2.20161 97.7982 7.69532e-09 95.0917 7.69532e-09ZM56.201 59.6198C54.979 59.6198 53.9888 58.6298 53.9888 57.4089C53.9888 56.1879 54.979 55.1974 56.201 55.1974C57.4217 55.1974 58.4121 56.1879 58.4121 57.4089C58.4121 58.6298 57.4217 59.6198 56.201 59.6198Z" fill="black"/>
<path d="M31.3057 24.0221H3.16752C1.42045 24.0221 0 25.4425 0 27.1892V73.4284C0 75.1749 1.42045 76.5958 3.16752 76.5958H31.3057C33.0518 76.5958 34.4732 75.1749 34.4732 73.4284V27.1892C34.4732 25.4425 33.0518 24.0221 31.3057 24.0221ZM13.7657 27.2523H20.7073C21.0385 27.2523 21.3076 27.5206 21.3076 27.8527C21.3076 28.184 21.0387 28.4526 20.7073 28.4526H13.7657C13.434 28.4526 13.1657 28.184 13.1657 27.8527C13.1657 27.5206 13.434 27.2523 13.7657 27.2523ZM17.1945 74.3712C16.2891 74.3712 15.5551 73.6374 15.5551 72.7322C15.5551 71.8269 16.2891 71.0931 17.1945 71.0931C18.0999 71.0931 18.8339 71.8269 18.8339 72.7322C18.8339 73.6374 18.0999 74.3712 17.1945 74.3712ZM31.7516 69.554C31.7516 69.9766 31.4132 70.3223 31 70.3223H3.47396C3.06058 70.3223 2.72237 69.9766 2.72237 69.554V31.131C2.72237 30.7084 3.06084 30.3629 3.47396 30.3629H31C31.4134 30.3629 31.7516 30.7086 31.7516 31.131V69.554Z" fill="black"/>
</svg>
